<?xml version="1.0" standalone="no"?>
<!DOCTYPE svg PUBLIC "-//W3C//DTD SVG 20010904//EN"
 "http://www.w3.org/TR/2001/REC-SVG-20010904/DTD/svg10.dtd">
<svg version="1.0" xmlns="http://www.w3.org/2000/svg"
 width="736.000000pt" height="736.000000pt" viewBox="0 0 736.000000 736.000000"
 preserveAspectRatio="xMidYMid meet">

<g transform="translate(0.000000,736.000000) scale(0.100000,-0.100000)"
fill="#000000" stroke="none">
<path d="M3439 6395 c-467 -114 -788 -754 -637 -1270 77 -264 293 -444 534
-445 191 0 428 137 576 334 226 301 295 714 171 1023 -113 282 -370 424 -644
358z"/>
<path d="M5018 5779 c-31 -4 -90 -21 -131 -37 -215 -83 -421 -305 -518 -556
-63 -163 -72 -215 -73 -406 -1 -153 2 -186 22 -258 121 -442 522 -597 897
-347 472 314 607 1097 251 1450 -87 86 -170 132 -274 151 -86 15 -93 15 -174
3z"/>
<path d="M1834 5490 c-291 -76 -544 -365 -633 -723 -115 -459 62 -880 409
-972 112 -30 272 -9 392 51 290 145 495 470 540 852 31 270 -61 541 -235 691
-127 109 -301 146 -473 101z"/>
<path d="M3480 4191 c-36 -10 -92 -30 -125 -45 -33 -16 -92 -43 -130 -60 -39
-18 -136 -74 -216 -124 -149 -92 -362 -203 -702 -363 -535 -253 -708 -349
-808 -448 -197 -198 -339 -534 -339 -803 0 -75 22 -198 48 -262 45 -116 148
-233 265 -304 222 -134 604 -191 1089 -162 167 10 225 10 271 0 127 -26 277
-124 602 -395 253 -210 319 -251 478 -295 88 -25 233 -27 321 -4 157 39 333
160 452 309 70 88 166 284 194 395 28 109 37 293 20 397 -17 109 -45 179 -163
413 -154 305 -235 521 -366 971 -79 270 -95 316 -149 429 -37 76 -61 110 -122
171 -164 164 -413 237 -620 180z"/>
<path d="M5780 4084 c-129 -19 -225 -57 -325 -129 -266 -190 -434 -529 -435
-878 0 -210 42 -358 144 -500 102 -143 248 -219 421 -218 141 0 254 39 390
136 265 187 445 592 421 941 -24 347 -221 604 -493 644 -69 10 -79 10 -123 4z"/>
</g>
</svg>
